<?xml version="1.0" encoding="utf-8"?>
<!DOCTYPE svg PUBLIC "-//W3C//DTD SVG 1.1//EN" "http://www.w3.org/Graphics/SVG/1.1/DTD/svg11.dtd">
<svg version="1.1" xmlns="http://www.w3.org/2000/svg" xmlns:xlink="http://www.w3.org/1999/xlink" x="0px" y="0px" width="660px" height="385px" viewBox="-18.106 50.234 660 385" enable-background="new -18.106 50.234 660 385" xml:space="preserve">
<g id="Layer_1">
	<path id="path3263" fill="#CCCCCC" d="M190.466,123.729c-17.515,0-31.725,13.3-31.725,29.686s14.209,29.685,31.725,29.686c4.976,0,9.691-1.081,13.885-2.993l23.189,18.366c0.344,0.272,2.586-1.797,5.036-4.625l7.583-8.748c2.45-2.829,4.142-5.319,3.798-5.591l-22.918-18.162c0.749-2.527,1.167-5.183,1.167-7.932C222.205,137.029,207.981,123.729,190.466,123.729z"/>
	<path id="path2388" fill="#D5CCCC" stroke="#D6D6D6" stroke-width="3.3" stroke-linecap="round" stroke-linejoin="round" d="M469.543,240.898c0.02,65.286-56.972,118.22-127.279,118.22c-70.309,0-127.3-52.934-127.28-118.22c-0.02-65.286,56.971-118.221,127.28-118.221C412.571,122.678,469.563,175.612,469.543,240.898L469.543,240.898z"/>
	<path id="rect3162" fill="#FFFFFF" stroke="#D5D5D5" stroke-width="3.3" stroke-linecap="round" stroke-linejoin="round" d="M341.395,62.101h1.737c9.005,0,16.304,0.824,16.304,1.84v68.041c0,1.016-7.299,1.84-16.304,1.84h-1.737c-9.005,0-16.305-0.824-16.305-1.84V63.941C325.09,62.925,332.39,62.101,341.395,62.101z"/>
	<path id="path3160" fill="#FFFFFF" stroke="#FFFFFF" stroke-width="3.3" stroke-linecap="round" stroke-linejoin="round" d="M461.461,239.888c0.019,61.101-53.354,110.642-119.197,110.642c-65.845,0-119.217-49.541-119.199-110.642c-0.018-61.101,53.354-110.642,119.199-110.642C408.107,129.246,461.479,178.787,461.461,239.888L461.461,239.888z"/>
	<path id="path3165" fill="#EFEFEF" stroke="#000000" stroke-width="1.6" stroke-linecap="round" stroke-linejoin="round" d="M457.421,240.393c0.018,58.59-51.319,106.095-114.653,106.095c-63.333,0-114.67-47.505-114.652-106.095c-0.018-58.59,51.319-106.095,114.652-106.095C406.102,134.298,457.438,181.803,457.421,240.393L457.421,240.393z"/>
	<path id="path3167" fill="#EFEFEF" stroke="#000000" stroke-width="1.6" stroke-linecap="round" stroke-linejoin="round" d="M450.854,240.393c0.017,56.637-48.606,102.559-108.591,102.559c-59.986,0-108.609-45.922-108.592-102.559c-0.017-56.637,48.606-102.559,108.592-102.559C402.248,137.834,450.871,183.756,450.854,240.393L450.854,240.393z"/>
	<path id="path3169" fill="#EFEFEF" stroke="#000000" stroke-width="1.6" stroke-linecap="round" stroke-linejoin="round" d="M446.814,240.393c0.016,54.684-46.798,99.022-104.551,99.022c-57.754,0-104.568-44.338-104.552-99.022c-0.016-54.684,46.798-99.022,104.552-99.022C400.017,141.371,446.83,185.709,446.814,240.393L446.814,240.393z"/>
	<path id="path3171" fill="#B3B3B3" stroke="#000000" stroke-width="1.6" stroke-linecap="round" stroke-linejoin="round" d="M441.764,240.393c0.015,52.173-44.537,94.475-99.5,94.475c-54.964,0-99.516-42.302-99.501-94.475c-0.015-52.173,44.537-94.475,99.501-94.475C397.227,145.918,441.778,188.22,441.764,240.393L441.764,240.393z"/>
	<linearGradient id="path3173_1_" gradientUnits="userSpaceOnUse" x1="145.6758" y1="-138.2168" x2="148.206" y2="81.9206" gradientTransform="matrix(1 0 0 -1 193.0298 233.2568)"><stop  offset="0" style="stop-color:#666666"/><stop  offset="1" style="stop-color:#666666;stop-opacity:0"/>
	</linearGradient>
	<path id="path3173" fill="url(#path3173_1_)" stroke="#000000" stroke-width="2.3" d="M269.814,221.849c-3.708-5.319-2.927-23.758-0.631-23.758c9.495-9.128,17.342-9.32,26.837-12.144c-3.342-16.027,11.819-8.998,22.788-13.334c11.773-4.984,23.547-1.761,35.32,10.675c4.192-16.332,15.761-5.888,32.821-5.533c14.553,15.982,15.81,22.057,15.033,34.787c11.089-0.943,13.38,12.171,20.083,23.172c-4.409,10.079-1.146,25.175-10.969,27.357c6.555,11.08-0.5,13.086-2.966,24.167c-14.303,8.167-15.728,22.929-25.518,17.054c0.129,13.521-7.817,6.495-19.837,9.383c-15.452-1.621-23.622,9.451-23.886-1.032c-12.913,12.65-16.49-1.417-29.404-2.78c-13.774-5.23-29.225,0.765-10.049-20.197c-11.542,1.856-23.552,6.234-17.927-8.624c-17.897-9.312-13.518-15.292-4.917-28.06c-13.902,3.575-5.66,7.543-18.174-13.18C264.007,226.273,261.208,223.044,269.814,221.849z"/>
	<path id="path3257" fill="#FFFFFF" d="M369.848,234.837h30.797l-30.797,4.618l28.673-0.77l-24.425,3.848l30.797,0.77l-31.859,3.079l31.859,0.77l-33.982,1.54l33.982,1.539L363.477,251L369.848,234.837z"/>
	<path id="path3259" fill="#FFFFFF" d="M330.779,216.633l0.805-30.786l3.813,30.907l-0.021-28.683l3.209,24.517l1.574-30.766l2.246,31.928l1.6-31.828l0.652,34.011l2.426-33.931l-0.312,41.422L330.779,216.633z"/>
	<path fill="#FFFFFF" d="M207.389,160.918v-15.805l2.828,0.656l-2.828-2.127v-2.55l-0.874,1.893l-0.096-0.072l-4.543-0.199l3.91,1.851l-5.271,11.419l-8.054-2.371l-6.781-22.578l3.386,22.483l-15.644-0.78l-2.525-3.536l-0.283,3.396l-3.117-0.155l3.116,0.656l1.55,4.959l1.821-4.25l17.39,3.662l4.752,5.755l-11.85,2.782l-4.204,6.609l6.781-3.163l1.497,4.618l0.902-6.705l7.19-2.276l109.471,64.694l0.995-6.261C273.735,202.657,184.482,161.395,207.389,160.918z"/>
	<path id="path3294" fill="none" stroke="#000000" d="M290.138,343.723l-46.811,36.689"/>
	<path id="path3296" fill="none" stroke="#000000" d="M325.563,357.639l-3.795,43.016"/>
	<path id="path3298" fill="none" stroke="#000000" d="M250.918,310.828l-60.728,27.833"/>
	<path id="path3300" fill="none" stroke="#000000" d="M240.797,272.873l-75.91,15.182"/>
	<path id="path3302" fill="none" stroke="#000000" d="M250.918,241.244l-91.092-1.265"/>
	<path id="path3304" fill="none" stroke="#000000" d="M262.305,223.532l-120.19-30.364"/>
	<path id="path3306" fill="none" stroke="#000000" d="M187.66,138.766l-43.016-35.425"/>
	<path id="path3308" fill="none" stroke="#000000" d="M349.601,94.485l87.297-21.508"/>
	<path id="path3310" fill="none" stroke="#000000" d="M347.07,189.373l125.251-60.728"/>
	<path id="path3312" fill="none" stroke="#000000" d="M367.313,209.615l125.252-40.485"/>
	<path id="path3314" fill="none" stroke="#000000" d="M397.677,247.57l111.335-16.447l0,0l-6.326,1.265l0,0"/>
	<path id="path3316" fill="none" stroke="#000000" d="M383.76,257.691l140.434,16.447l-145.494-2.531"/>
	<path id="path3318" fill="none" stroke="#000000" d="M376.17,289.32l103.742,49.341"/>
	<path id="path3175" fill="#FFFFFF" d="M332.152,196.236l-6.719,8.719c-1.502,0.477-2.983,1.004-4.406,1.625c0.492-0.546,1.219-1.313,1.219-1.313l-2.969-1.781c0,0-0.789,1.042-1.469,1.938l-2.563-6.313l-4.813,13.938c-0.628,0.516-1.245,1.05-1.844,1.594c1.03-1.644,2.188-3.5,2.188-3.5l-2.469-1.063l-3.313,6.25c-0.064,0.733-0.247,1.468-0.156,2.156c-0.735,0.854-1.429,1.75-2.094,2.656c-0.449-0.289-0.946-0.606-1.438-1c0.033-0.081,0.219-0.531,0.219-0.531l-1.125-0.313c-0.795-0.725-1.622-1.572-2.469-2.625c-4.818-5.991-3.156,2.281-3.156,2.281l2.531,8.031c-0.049,0.657-0.08,1.302,0.063,1.813c0.124-0.139,0.248-0.267,0.375-0.406l0.313,0.938c-0.255,0.592-0.491,1.177-0.719,1.781l-2.375-0.031c0.048-0.234,0.188-0.969,0.188-0.969l-1.031-0.156c0,0-0.115,0.819-0.156,1.094l-6.188-0.125l5.375,5.625c-0.023,0.159-0.125,0.813-0.125,0.813c-0.014,0.642-0.036,1.281-0.031,1.875l-7.375,1.594c0,0,0.886,2.443,6.563,3.031c0.013,0.549,0.017,0.645,0.031,1.281c0.013-0.641,0.018-0.732,0.031-1.281c0.764,0.076,1.585,0.125,2.531,0.125c-0.014,0.434-0.031,0.875-0.031,1.313c0,0.577,0.039,1.146,0.063,1.719l-2.531,1.313c-0.019-0.646-0.026-1.607-0.063-3.188c-0.034,1.635-0.085,2.918-0.094,3.281l-4.813,2.531c0,0,4.299,2.715,6.25,5.781c0.321,1.925,0.656,3.906,0.656,3.906c0.006,0.039,0.025,0.056,0.031,0.094c0.002,0.012-0.002,0.02,0,0.031c-0.372,0.773-1.145,1.514-2.375,2.156c-7.95,4.147-3.125,1.875-3.125,1.875s5.035,0.148,9.25,1.625c0.632,1.779,1.813,5.031,1.813,5.031c0.585,1.847,1.216,2.141,1.844,2.625c0.265-0.777,0.069-1.78,0-2.719c0,0-0.78-2.115-1.531-4.063c0.88,0.465,1.651,1.033,2.25,1.688c0.041,0.045,0.086,0.079,0.125,0.125c0.157,0.218,0.308,0.441,0.469,0.656c0.734,1.188,0.934,2.646,0.25,4.469c-1.449,3.861,0.74,4.282,3.719,3.5c0.771,1.35,1.531,2.719,1.531,2.719c0.817,1.663,1.651,1.74,2.5,2.031c0.358-0.859,0.093-1.802,0-2.719c0,0-0.862-1.491-1.656-2.844c0.101-0.039,0.212-0.054,0.313-0.094c1.851,1.581,3.827,3.033,5.938,4.313l-0.063,0.938l-0.063,0.031c0,0,0.03,0.061,0.031,0.063l-0.25,3.094c0,0,1.137-0.075,2.75-0.125c0.724,0.863,1.531,1.844,1.531,1.844c0.982,1.427,1.967,1.297,2.969,1.344c0.423-0.962,0.109-1.828,0-2.719c0,0-0.285-0.355-0.406-0.5c0.631,0.012,1.269,0.031,1.938,0.063c1.322,0.475,2.688,0.894,4.063,1.25l-0.469,0.313l4.5,3.813c1.061,1.198,2.114,0.828,3.188,0.594c0.453-1.08,0.117-1.828,0-2.688c0,0-0.658-0.578-1-0.875c0.76,0.092,1.542,0.156,2.313,0.219c1.301,0.756,2.225,1.723,2.594,2.938c1.965,6.475,1.301-1.225,1.156-2.781c0.207-0.006,0.417-0.027,0.625-0.031l-0.313,0.281l4.625,2.688c1.068,0.906,2.128,0.29,3.188-0.188c0.447-1.184,0.116-1.886,0-2.719c0,0-0.658-0.414-1-0.625c2.32-0.357,4.594-0.857,6.781-1.531l-0.531,0.625l4.344,1.563c1.003,0.674,2.009-0.22,2.969-0.969c0.105-0.34,0.162-0.613,0.188-0.875c3.575,3.561,3.469,1.969,3.469,1.969l1.969-6.438c1.051,0.149,2.844,0.406,2.844,0.406c0.85,0.43,1.715-0.713,2.531-1.656c0.345-1.379,0.09-1.938,0-2.719c0,0-1.018-0.176-2-0.375c0.908-0.75,1.755-1.56,2.594-2.375c0.873,0.113,1.889,0.308,3.094,0.625c9.637,2.534,8.375-2.031,8.375-2.031s-3.404-4.688-4.5-7.313c0.301-0.5,0.596-0.989,0.875-1.5c0.025,0.012,0.035,0.018,0.063,0.031c4.336,2.074,7.281,1.063,7.281,1.063l-0.375-7.313c0,0-3.053-4.86,0-6.906l-0.094,1.031l0.594-1.219c0.012,0.008,0.021-0.076,0.031-0.125c1.25-0.572,3.244-0.818,6.313-0.375c12.769,1.844-6.688-13.594-6.688-13.594s-0.058-3.454,6.688-6.219c6.746-2.765-4.094-3.688-4.094-3.688l-10.219-6.906l-1.344-3.906c0,0-0.906,0.026-1.75,0.063l-0.188-7.625c0,0-12.043-1.215-9.875-3.75s-4.438-7.938-4.438-7.938l-11.188,6.531c-1.225-0.288-2.459-0.525-3.719-0.719c0.221-0.117,0.781-0.406,0.781-0.406l-3.219-3.344l-4.594,3.125c-0.002,0.017,0.003,0.046,0,0.063c-0.109,0-0.203,0-0.313,0c-0.325,0-0.645,0.025-0.969,0.031L332.152,196.236z M293.715,237.173l1.531,1.594l-1.969,0.406C293.403,238.747,293.558,238.168,293.715,237.173z"/>
</g>
<g id="Layer_2">
	<text transform="matrix(0.8398 0 0 1 284.3257 419.3076)" fill="#000080" font-family="Liberation Sans" font-style="regular" font-size="20">Peritoneum</text>
	<text transform="matrix(0.8398 0 0 1 188.189 397.7295)" fill="#000080" font-family="Liberation Sans" font-style="regular" font-size="20">Serosa</text>
	<text transform="matrix(0.8398 0 0 1 37.2476 353.3555)" fill="#000080" font-family="Liberation Sans" font-style="regular" font-size="20">Longitudinal muscle</text>
	<text transform="matrix(0.8398 0 0 1 43.0444 298.5264)" fill="#000080" font-family="Liberation Sans" font-style="regular" font-size="20">Circular muscle</text>
	<text transform="matrix(0.8398 0 0 1 64.2881 244.124)" fill="#000080" font-family="Liberation Sans" font-style="regular" font-size="20">Submucosa</text>
	<text transform="matrix(0.8398 0 0 1 -7.0054 195.2349)" fill="#000080" font-family="Liberation Sans" font-style="regular" font-size="20">Muscularis mucosa</text>
	<text transform="matrix(0.8398 0 0 1 446.8145 76.9775)" fill="#000080" font-family="Liberation Sans" font-style="regular" font-size="20">Mesentery</text>
	<text transform="matrix(0.8398 0 0 1 42.2515 89.7744)" fill="#000080" font-family="Liberation Sans" font-style="regular" font-size="20">Gland (e.g. salivary, liver)</text>
	<text transform="matrix(0.8398 0 0 1 484.916 356.5205)" fill="#000080" font-family="Liberation Sans" font-style="regular" font-size="20">Mucosa</text>
	<text transform="matrix(0.8398 0 0 1 480.9131 131.0366)" fill="#000080" font-family="Liberation Sans" font-style="regular" font-size="20">Brunner&apos;s Glands</text>
	<text transform="matrix(0.8398 0 0 1 501.9121 170.3696)" enable-background="new    "><tspan x="0" y="0" fill="#000080" font-family="Liberation Sans" font-style="regular" font-size="20">Crypt of</tspan><tspan x="0" y="24" fill="#000080" font-family="Liberation Sans" font-style="regular" font-size="20">Lieberkuhn gland</tspan></text>
	<text transform="matrix(0.8398 0 0 1 531.9121 280.4629)" fill="#000080" font-family="Liberation Sans" font-style="regular" font-size="20">Villi</text>
	<text transform="matrix(0.8398 0 0 1 520.1904 239.3467)" fill="#000080" font-family="Liberation Sans" font-style="regular" font-size="20">Tubular gland</text>
	<text transform="matrix(0.8398 0 0 1 315.1113 248.4932)" fill="#000080" font-family="Liberation Sans" font-style="regular" font-size="20">Lumen</text>
</g>
</svg>
